<?xml version="1.0" encoding="utf-8"?>
<!-- Generator: Adobe Illustrator 23.0.2, SVG Export Plug-In . SVG Version: 6.00 Build 0)  -->
<svg version="1.1" id="Camada_1" xmlns="http://www.w3.org/2000/svg" xmlns:xlink="http://www.w3.org/1999/xlink" x="0px" y="0px"
	 viewBox="0 0 531.39 531.37" style="enable-background:new 0 0 531.39 531.37;" xml:space="preserve">
<style type="text/css">
	.st0{fill:url(#SVGID_1_);}
	.st1{fill:url(#SVGID_2_);}
</style>
<g>
	<linearGradient id="SVGID_1_" gradientUnits="userSpaceOnUse" x1="417.7787" y1="52.3262" x2="11.1862" y2="625.2521">
		<stop  offset="0" style="stop-color:#F7F7F8"/>
		<stop  offset="1" style="stop-color:#FFFFFF"/>
	</linearGradient>
	<path class="st0" d="M522.91,265.21C522.91,123.71,408.2,9,266.7,9C125.2,9,10.49,123.71,10.49,265.21
		c0,141.5,114.71,256.21,256.21,256.21c0.73,0,1.46-0.05,2.19-0.05V342.63h-61.69v-71.44h61.69V218.5
		c0-61.14,37.34-94.43,91.87-94.43c26.13,0,48.58,1.95,55.13,2.81v63.9l-37.83,0.02c-29.66,0-35.4,14.09-35.4,34.77v45.61h70.74
		l-9.21,71.44h-61.53v167.34C447.07,477.59,522.91,380.26,522.91,265.21z"/>
	<linearGradient id="SVGID_2_" gradientUnits="userSpaceOnUse" x1="423.6428" y1="117.0632" x2="216.6503" y2="497.7817">
		<stop  offset="0" style="stop-color:#232323"/>
		<stop  offset="1" style="stop-color:#444242"/>
	</linearGradient>
	<path class="st1" d="M404.19,342.63l9.21-71.44h-70.74v-45.61c0-20.68,5.74-34.77,35.4-34.77l37.83-0.02v-63.9
		c-6.54-0.87-29-2.81-55.13-2.81c-54.53,0-91.87,33.29-91.87,94.43v52.68h-61.69v71.44h61.69v178.74
		c25.67-0.22,50.44-4.17,73.77-11.4V342.63H404.19z"/>
</g>
</svg>
