<?xml version="1.0" encoding="utf-8"?>
<!-- Generator: Adobe Illustrator 23.0.2, SVG Export Plug-In . SVG Version: 6.00 Build 0)  -->
<svg version="1.1" id="Camada_1" xmlns="http://www.w3.org/2000/svg" xmlns:xlink="http://www.w3.org/1999/xlink" x="0px" y="0px"
	 viewBox="0 0 531.39 531.37" style="enable-background:new 0 0 531.39 531.37;" xml:space="preserve">
<style type="text/css">
	.st0{fill:#395398;}
	.st1{fill:#FFFFFF;}
</style>
<g>
	<path class="st0" d="M524.89,265.56c0-142.6-115.6-258.2-258.19-258.2c-142.6,0-258.19,115.6-258.19,258.2
		c0,142.59,115.6,258.19,258.19,258.19c0.74,0,1.47-0.05,2.21-0.05V343.58h-62.17v-72h62.17v-53.09c0-61.61,37.63-95.16,92.58-95.16
		c26.33,0,48.96,1.96,55.56,2.84v64.39l-38.12,0.02c-29.89,0-35.67,14.2-35.67,35.04v45.96h71.29l-9.28,72h-62v168.63
		C448.47,479.59,524.89,381.5,524.89,265.56z"/>
	<path class="st1" d="M405.26,343.58l9.28-72h-71.29v-45.96c0-20.84,5.78-35.04,35.67-35.04l38.12-0.02v-64.39
		c-6.59-0.87-29.22-2.84-55.56-2.84c-54.95,0-92.58,33.55-92.58,95.16v53.09h-62.17v72h62.17V523.7
		c25.86-0.22,50.83-4.2,74.34-11.49V343.58H405.26z"/>
</g>
</svg>
