<?xml version="1.0" encoding="utf-8"?>
<!-- Generator: Adobe Illustrator 23.0.2, SVG Export Plug-In . SVG Version: 6.00 Build 0)  -->
<svg version="1.1" id="Camada_1" xmlns="http://www.w3.org/2000/svg" xmlns:xlink="http://www.w3.org/1999/xlink" x="0px" y="0px"
	 viewBox="0 0 531.39 531.37" style="enable-background:new 0 0 531.39 531.37;" xml:space="preserve">
<style type="text/css">
	.st0{fill:url(#SVGID_1_);}
	.st1{fill:#FFFFFF;}
</style>
<g>
	
		<radialGradient id="SVGID_1_" cx="262.056" cy="285.7013" r="713.7925" fx="-37.5443" fy="290.266" gradientTransform="matrix(0.6691 -0.7431 0.6034 0.5433 -85.6954 325.2156)" gradientUnits="userSpaceOnUse">
		<stop  offset="0" style="stop-color:#444242"/>
		<stop  offset="1" style="stop-color:#232323"/>
	</radialGradient>
	<path class="st0" d="M518.53,265.89c0,139.46-113.05,252.51-252.51,252.51c-139.46,0-252.51-113.05-252.51-252.51
		c0-139.46,113.06-252.52,252.51-252.52C405.48,13.37,518.53,126.42,518.53,265.89z"/>
	<g>
		<g>
			<path class="st1" d="M334.43,436.3H197.61c-60.73,0-110.13-49.41-110.13-110.13V205.6c0-60.72,49.4-110.13,110.13-110.13h136.82
				c60.72,0,110.13,49.41,110.13,110.13v120.57C444.56,386.89,395.15,436.3,334.43,436.3z M197.61,119.94
				c-47.23,0-85.66,38.42-85.66,85.66v120.57c0,47.23,38.43,85.65,85.66,85.65h136.82c47.23,0,85.65-38.42,85.65-85.65V205.6
				c0-47.23-38.43-85.66-85.65-85.66H197.61z"/>
		</g>
		<g>
			<path class="st1" d="M266.02,363.92c-54.06,0-98.03-43.98-98.03-98.03c0-54.06,43.97-98.04,98.03-98.04
				c54.06,0,98.03,43.97,98.03,98.04C364.05,319.94,320.08,363.92,266.02,363.92z M266.02,192.33c-40.56,0-73.56,33-73.56,73.56
				c0,40.56,32.99,73.56,73.56,73.56c40.56,0,73.56-33,73.56-73.56C339.58,225.32,306.58,192.33,266.02,192.33z"/>
		</g>
		<g>
			<path class="st1" d="M382.89,170.87c0,11.23-9.11,20.34-20.34,20.34c-11.24,0-20.34-9.11-20.34-20.34
				c0-11.24,9.1-20.34,20.34-20.34C373.79,150.53,382.89,159.63,382.89,170.87z"/>
		</g>
	</g>
</g>
</svg>
