<?xml version="1.0" encoding="utf-8"?>
<!-- Generator: Adobe Illustrator 23.0.2, SVG Export Plug-In . SVG Version: 6.00 Build 0)  -->
<svg version="1.1" id="Camada_1" xmlns="http://www.w3.org/2000/svg" xmlns:xlink="http://www.w3.org/1999/xlink" x="0px" y="0px"
	 viewBox="0 0 531.39 531.37" style="enable-background:new 0 0 531.39 531.37;" xml:space="preserve">
<style type="text/css">
	.st0{fill:url(#SVGID_1_);}
	.st1{fill:url(#SVGID_2_);}
</style>
<g>
	
		<radialGradient id="SVGID_1_" cx="261.9932" cy="285.3419" r="725.0996" fx="-42.353" fy="289.979" gradientTransform="matrix(0.6534 -0.757 0.6147 0.5306 -84.5925 332.2735)" gradientUnits="userSpaceOnUse">
		<stop  offset="0" style="stop-color:#FFFFFF"/>
		<stop  offset="1" style="stop-color:#F7F7F8"/>
	</radialGradient>
	<path class="st0" d="M522.53,265.21c0,141.66-114.84,256.51-256.51,256.51c-141.67,0-256.51-114.84-256.51-256.51
		C9.51,123.54,124.35,8.7,266.02,8.7C407.69,8.7,522.53,123.54,522.53,265.21z"/>
	<linearGradient id="SVGID_2_" gradientUnits="userSpaceOnUse" x1="433.7005" y1="79.0181" x2="53.7666" y2="500.8929">
		<stop  offset="0" style="stop-color:#232323"/>
		<stop  offset="1" style="stop-color:#444242"/>
	</linearGradient>
	<path class="st1" d="M335.52,438.33H196.53c-61.69,0-111.87-50.19-111.87-111.88V203.97c0-61.69,50.19-111.88,111.87-111.88h138.99
		c61.68,0,111.87,50.19,111.87,111.88v122.48C447.39,388.13,397.2,438.33,335.52,438.33z M196.53,116.96
		c-47.98,0-87.01,39.03-87.01,87.01v122.48c0,47.98,39.03,87.01,87.01,87.01h138.99c47.97,0,87.01-39.03,87.01-87.01V203.97
		c0-47.98-39.03-87.01-87.01-87.01H196.53z M266.02,364.8c-54.91,0-99.58-44.68-99.58-99.58c0-54.92,44.67-99.59,99.58-99.59
		c54.91,0,99.59,44.67,99.59,99.59C365.6,320.12,320.93,364.8,266.02,364.8z M266.02,190.49c-41.2,0-74.72,33.52-74.72,74.73
		c0,41.2,33.52,74.72,74.72,74.72c41.2,0,74.72-33.52,74.72-74.72C340.74,224.01,307.22,190.49,266.02,190.49z M364.08,148.03
		c-11.41,0-20.66,9.25-20.66,20.67c0,11.41,9.25,20.66,20.66,20.66c11.41,0,20.66-9.25,20.66-20.66
		C384.74,157.27,375.49,148.03,364.08,148.03z"/>
</g>
</svg>
