<?xml version="1.0" encoding="utf-8"?>
<!-- Generator: Adobe Illustrator 23.0.2, SVG Export Plug-In . SVG Version: 6.00 Build 0)  -->
<svg version="1.1" id="Camada_1" xmlns="http://www.w3.org/2000/svg" xmlns:xlink="http://www.w3.org/1999/xlink" x="0px" y="0px"
	 viewBox="0 0 531.39 531.37" style="enable-background:new 0 0 531.39 531.37;" xml:space="preserve">
<style type="text/css">
	.st0{fill:#7BC5F8;}
	.st1{fill:#FFFFFF;}
</style>
<g>
	<path class="st0" d="M523.23,265.28c0,141.58-114.78,256.36-256.36,256.36c-141.58,0-256.36-114.78-256.36-256.36
		C10.51,123.7,125.29,8.92,266.87,8.92C408.45,8.92,523.23,123.7,523.23,265.28z"/>
	<g>
		<path class="st1" d="M430.77,145.54L430.77,145.54C430.77,145.54,430.77,145.54,430.77,145.54
			C430.77,145.54,430.77,145.54,430.77,145.54z"/>
		<path class="st1" d="M418.79,176.62c-6.62,1.83-11.83,1.54-11.83,1.54l0.21-1.26c6.16-4.94,21.71-20.07,23.76-27.15
			c0.89-3.06-0.16-4.11-0.17-4.22l-19.85,8.43l-16.62,7.49l0,0c-11.47-12.14-28.82-19.87-48.23-19.87
			c-34.54,0-62.54,24.46-62.54,54.65c0,5.52,0.83,15.6,2.56,20.62c0,1.58,0.06-1.59,0,0c-22.24-0.61-50.75-9.73-76.14-22.59
			c-50.07-25.37-53.21-42.93-53.21-42.93c-7.86,8.35-11.92,36-3.95,57.68c5.1,13.88,22.64,26.34,22.64,26.34l0,0
			c0,0-7.84,0.14-16.06-2.64c-8.22-2.78-11.32-5.53-11.32-5.53c-4.89,11.92,4.92,33.2,21.86,48.46
			c9.88,8.91,27.91,14.48,27.91,14.48l-28.18,0.8c-1.58,27.39,57.44,43.65,57.44,43.65l0,0c-17.3,13.31-37.37,21.41-58.89,21.41
			c-11.15,0-21.93-1.67-32.15-4.72c28.42,23.42,64.96,39.59,104.69,37.5c105.39-5.54,164.88-96.13,167.72-185.1l0.14,0.18
			c0,0,4.93-2.46,15.49-13.02c10.55-10.56,17.12-22.91,17.12-22.91S425.42,174.79,418.79,176.62z"/>
		<path class="st1" d="M430.77,145.54C430.85,147.23,430.77,145.71,430.77,145.54L430.77,145.54z"/>
	</g>
</g>
</svg>
