<?xml version="1.0" encoding="utf-8"?>
<!-- Generator: Adobe Illustrator 23.0.2, SVG Export Plug-In . SVG Version: 6.00 Build 0)  -->
<svg version="1.1" id="Camada_1" xmlns="http://www.w3.org/2000/svg" xmlns:xlink="http://www.w3.org/1999/xlink" x="0px" y="0px"
	 viewBox="0 0 531.39 531.37" style="enable-background:new 0 0 531.39 531.37;" xml:space="preserve">
<style type="text/css">
	.st0{fill:url(#SVGID_1_);}
	.st1{fill:#FFFFFF;}
</style>
<g>
	<linearGradient id="SVGID_1_" gradientUnits="userSpaceOnUse" x1="457.049" y1="24.225" x2="67.5348" y2="518.6083">
		<stop  offset="0" style="stop-color:#232323"/>
		<stop  offset="1" style="stop-color:#444242"/>
	</linearGradient>
	<path class="st0" d="M526.48,265.61c0,143.38-116.23,259.61-259.61,259.61c-143.37,0-259.61-116.23-259.61-259.61
		C7.26,122.23,123.49,6,266.87,6C410.24,6,526.48,122.23,526.48,265.61z"/>
	<g>
		<path class="st1" d="M432.84,144.35L432.84,144.35C432.84,144.35,432.84,144.35,432.84,144.35
			C432.84,144.35,432.84,144.35,432.84,144.35z"/>
		<path class="st1" d="M420.71,175.82c-6.7,1.85-11.98,1.56-11.98,1.56l0.21-1.27c6.24-5,21.98-20.33,24.06-27.49
			c0.9-3.1-0.17-4.17-0.17-4.27l-20.1,8.54l-16.83,7.59l0,0c-11.61-12.3-29.19-20.12-48.84-20.12c-34.97,0-63.33,24.77-63.33,55.34
			c0,5.59,0.84,15.79,2.6,20.88c0,1.6,0.06-1.61,0,0c-22.52-0.62-51.39-9.85-77.1-22.88c-50.71-25.69-53.88-43.47-53.88-43.47
			c-7.96,8.45-12.07,36.46-4,58.41c5.16,14.05,22.93,26.67,22.93,26.67l0,0c0,0-7.94,0.14-16.26-2.67
			c-8.32-2.81-11.47-5.6-11.47-5.6c-4.95,12.07,4.98,33.62,22.14,49.08c10,9.02,28.27,14.67,28.27,14.67l-28.54,0.81
			c-1.6,27.73,58.17,44.21,58.17,44.21l0,0c-17.52,13.48-37.85,21.69-59.64,21.69c-11.29,0-22.2-1.69-32.56-4.78
			c28.78,23.72,65.78,40.09,106.01,37.98c106.73-5.61,166.97-97.35,169.84-187.45l0.14,0.18c0,0,5-2.49,15.69-13.19
			c10.69-10.69,17.34-23.2,17.34-23.2S427.43,173.97,420.71,175.82z"/>
		<path class="st1" d="M432.84,144.35C432.92,146.06,432.84,144.52,432.84,144.35L432.84,144.35z"/>
	</g>
</g>
</svg>
