<?xml version="1.0" encoding="utf-8"?>
<!-- Generator: Adobe Illustrator 23.0.2, SVG Export Plug-In . SVG Version: 6.00 Build 0)  -->
<svg version="1.1" id="Camada_1" xmlns="http://www.w3.org/2000/svg" xmlns:xlink="http://www.w3.org/1999/xlink" x="0px" y="0px"
	 viewBox="0 0 531.39 531.37" style="enable-background:new 0 0 531.39 531.37;" xml:space="preserve">
<style type="text/css">
	.st0{fill:url(#SVGID_1_);}
	.st1{fill:#FFFFFF;}
	.st2{fill:url(#SVGID_2_);}
</style>
<g>
	<linearGradient id="SVGID_1_" gradientUnits="userSpaceOnUse" x1="423.2702" y1="34.8866" x2="95.8057" y2="518.6409">
		<stop  offset="0" style="stop-color:#F7F7F8"/>
		<stop  offset="1" style="stop-color:#FFFFFF"/>
	</linearGradient>
	<path class="st0" d="M524.8,265.94c0,142.45-115.49,257.93-257.94,257.93c-142.45,0-257.93-115.48-257.93-257.93
		C8.93,123.48,124.42,8,266.87,8C409.32,8,524.8,123.48,524.8,265.94z"/>
	<g>
		<path class="st1" d="M431.77,145.46L431.77,145.46C431.77,145.46,431.77,145.46,431.77,145.46
			C431.77,145.46,431.77,145.46,431.77,145.46z"/>
		<linearGradient id="SVGID_2_" gradientUnits="userSpaceOnUse" x1="385.1472" y1="59.5971" x2="158.1548" y2="387.0616">
			<stop  offset="0" style="stop-color:#232323"/>
			<stop  offset="1" style="stop-color:#444242"/>
		</linearGradient>
		<path class="st2" d="M419.72,176.73c-6.66,1.84-11.9,1.55-11.9,1.55l0.21-1.26c6.2-4.97,21.84-20.2,23.9-27.32
			c0.89-3.08-0.17-4.14-0.17-4.24l-19.97,8.48l-16.72,7.54l0,0c-11.54-12.22-29-19.99-48.53-19.99c-34.75,0-62.92,24.61-62.92,54.98
			c0,5.56,0.83,15.69,2.58,20.75c0,1.59,0.06-1.6,0,0c-22.38-0.61-51.06-9.79-76.6-22.73c-50.38-25.53-53.53-43.19-53.53-43.19
			c-7.91,8.4-12,36.22-3.97,58.04c5.13,13.96,22.78,26.5,22.78,26.5l0,0c0,0-7.89,0.14-16.16-2.66c-8.27-2.79-11.39-5.56-11.39-5.56
			c-4.92,11.99,4.95,33.4,21.99,48.76c9.94,8.96,28.09,14.57,28.09,14.57l-28.36,0.8c-1.59,27.55,57.8,43.92,57.8,43.92l0,0
			c-17.41,13.39-37.6,21.55-59.25,21.55c-11.22,0-22.06-1.68-32.35-4.75c28.6,23.57,65.36,39.83,105.33,37.73
			c106.04-5.57,165.9-96.72,168.75-186.24l0.14,0.18c0,0,4.96-2.48,15.59-13.1c10.62-10.62,17.23-23.05,17.23-23.05
			S426.39,174.89,419.72,176.73z"/>
		<path class="st1" d="M431.77,145.46C431.85,147.16,431.77,145.63,431.77,145.46L431.77,145.46z"/>
	</g>
</g>
</svg>
