<?xml version="1.0" encoding="utf-8"?>
<!-- Generator: Adobe Illustrator 23.0.2, SVG Export Plug-In . SVG Version: 6.00 Build 0)  -->
<svg version="1.1" id="Camada_1" xmlns="http://www.w3.org/2000/svg" xmlns:xlink="http://www.w3.org/1999/xlink" x="0px" y="0px"
	 viewBox="0 0 531.39 531.37" style="enable-background:new 0 0 531.39 531.37;" xml:space="preserve">
<style type="text/css">
	.st0{fill:url(#SVGID_1_);}
	.st1{fill:url(#SVGID_2_);}
</style>
<g>
	<g>
		<linearGradient id="SVGID_1_" gradientUnits="userSpaceOnUse" x1="458.6088" y1="-11.1452" x2="55.9874" y2="566.691">
			<stop  offset="0" style="stop-color:#F7F7F8"/>
			<stop  offset="1" style="stop-color:#FFFFFF"/>
		</linearGradient>
		<path class="st0" d="M266.18,522.69c-45.1,0-89.34-11.93-128.52-34.58L37.27,522.69L57.9,416.38
			c-32.35-44.33-49.4-96.48-49.4-151.36C8.51,122.93,124.1,7.34,266.18,7.34c142.1,0,257.68,115.59,257.68,257.68
			C523.87,407.1,408.28,522.69,266.18,522.69z"/>
	</g>
</g>
<linearGradient id="SVGID_2_" gradientUnits="userSpaceOnUse" x1="386.3838" y1="108.7555" x2="88.1458" y2="496.465">
	<stop  offset="0" style="stop-color:#232323"/>
	<stop  offset="1" style="stop-color:#444242"/>
</linearGradient>
<path class="st1" d="M266.18,433.35c-29.46,0-58.36-7.8-83.96-22.6l-65.59,22.6l13.47-69.46c-21.12-28.96-32.27-63.02-32.27-98.89
	c0-92.82,75.52-168.34,168.34-168.34c92.83,0,168.34,75.52,168.34,168.34C434.53,357.84,359.01,433.35,266.18,433.35z
	 M185.25,383.22l5.07,3.18c22.86,14.33,49.1,21.91,75.86,21.91c79.02,0,143.3-64.28,143.3-143.3c0-79.01-64.28-143.29-143.3-143.29
	c-79.01,0-143.29,64.28-143.29,143.29c0,32.15,10.53,62.61,30.44,88.08l3.52,4.5l-7.37,37.95L185.25,383.22z M179.4,240.79
	c4.93,21.7,25.81,45.55,49.32,69.07c23.51,23.51,67.64,38.59,86.17,38.59c18.53,0,30.86-13,35.08-17.22
	c4.22-4.21,6.28-16.69,6.28-21.78c0-5.1-3.38-6.33-3.38-6.33s-28.86-14.39-35.52-17.43c-6.67-3.04-10.68,2.14-10.68,2.14
	s-12.5,15.62-14.8,17.92c-2.31,2.3-5.93,1.81-5.93,1.81s-25.3-9.4-38.47-22.59c-13.2-13.18-19.57-23.46-23.68-29.04
	c-4.11-5.59,0-10.86,0-10.86s7.4-7.4,10.69-12.49c3.29-5.1,1.14-10.36,1.14-10.36s-12.49-30.59-15.29-35.85
	c-2.79-5.26-13.16-5.26-21.21-4.27c-8.05,0.99-17.93,18.25-17.93,18.25C175.13,209.27,174.47,219.08,179.4,240.79z"/>
</svg>
