<?xml version="1.0" encoding="utf-8"?>
<!-- Generator: Adobe Illustrator 23.0.2, SVG Export Plug-In . SVG Version: 6.00 Build 0)  -->
<svg version="1.1" id="Camada_1" xmlns="http://www.w3.org/2000/svg" xmlns:xlink="http://www.w3.org/1999/xlink" x="0px" y="0px"
	 viewBox="0 0 531.39 531.37" style="enable-background:new 0 0 531.39 531.37;" xml:space="preserve">
<style type="text/css">
	.st0{fill:url(#SVGID_1_);}
	.st1{fill:none;}
	.st2{fill:#FFFFFF;}
</style>
<g>
	<g>
		<g>
			<linearGradient id="SVGID_1_" gradientUnits="userSpaceOnUse" x1="457.6915" y1="17.6213" x2="23.3292" y2="578.8328">
				<stop  offset="0" style="stop-color:#232323"/>
				<stop  offset="1" style="stop-color:#444242"/>
			</linearGradient>
			<path class="st0" d="M265.69,531.37c-46.51,0-92.12-12.3-132.52-35.66L29.66,531.37l21.28-109.61C17.58,376.05,0,322.28,0,265.69
				C0,119.19,119.19,0,265.69,0c146.52,0,265.7,119.19,265.7,265.69C531.39,412.19,412.21,531.37,265.69,531.37z"/>
		</g>
	</g>
	<g>
		<g>
			<path class="st1" d="M265.69,105.02c-88.73,0-160.66,71.94-160.66,160.66c0,37.29,12.82,71.51,34.13,98.78l-10.74,55.31
				l52.18-17.98c24.69,15.48,53.8,24.57,85.08,24.57c88.73,0,160.68-71.93,160.68-160.67C426.37,176.96,354.42,105.02,265.69,105.02
				z"/>
			<path class="st2" d="M265.69,439.26c-30.38,0-60.18-8.04-86.57-23.3l-67.63,23.3l13.89-71.62
				c-21.78-29.86-33.27-64.98-33.27-101.96c0-95.71,77.86-173.57,173.57-173.57c95.72,0,173.58,77.86,173.58,173.57
				C439.27,361.4,361.41,439.26,265.69,439.26z M182.24,387.57l5.23,3.27c23.57,14.78,50.62,22.59,78.22,22.59
				c81.48,0,147.76-66.28,147.76-147.75c0-81.47-66.28-147.75-147.76-147.75c-81.47,0-147.74,66.28-147.74,147.75
				c0,33.15,10.86,64.55,31.38,90.82l3.63,4.64l-7.6,39.13L182.24,387.57z"/>
		</g>
		<path class="st2" d="M178.06,199c0,0,10.19-17.8,18.49-18.82c8.3-1.02,18.99-1.02,21.87,4.41c2.89,5.42,15.77,36.97,15.77,36.97
			s2.21,5.43-1.18,10.68c-3.39,5.25-11.02,12.88-11.02,12.88s-4.24,5.43,0,11.19c4.24,5.76,10.81,16.36,24.42,29.95
			c13.58,13.6,39.67,23.29,39.67,23.29s3.73,0.5,6.11-1.87c2.37-2.37,15.26-18.48,15.26-18.48s4.14-5.34,11.01-2.2
			c6.87,3.13,36.62,17.97,36.62,17.97s3.48,1.27,3.48,6.52c0,5.25-2.13,18.12-6.48,22.46c-4.35,4.35-17.06,17.76-36.17,17.76
			c-19.1,0-64.61-15.55-88.85-39.79c-24.25-24.25-45.77-48.84-50.86-71.21C171.12,218.33,171.8,208.21,178.06,199z"/>
	</g>
</g>
</svg>
