<?xml version="1.0" encoding="utf-8"?>
<!-- Generator: Adobe Illustrator 23.0.2, SVG Export Plug-In . SVG Version: 6.00 Build 0)  -->
<svg version="1.1" id="Camada_1" xmlns="http://www.w3.org/2000/svg" xmlns:xlink="http://www.w3.org/1999/xlink" x="0px" y="0px"
	 viewBox="0 0 531.39 531.37" style="enable-background:new 0 0 531.39 531.37;" xml:space="preserve">
<style type="text/css">
	.st0{fill:#32BA46;}
	.st1{fill:none;}
	.st2{fill:#FFFFFF;}
</style>
<g>
	<g>
		<g>
			<path class="st0" d="M266.18,524.03c-45.28,0-89.69-11.97-129.02-34.72L36.38,524.03L57.1,417.31
				c-32.47-44.5-49.59-96.85-49.59-151.95C7.51,122.73,123.55,6.69,266.18,6.69c142.65,0,258.68,116.04,258.68,258.68
				C524.87,407.99,408.84,524.03,266.18,524.03z"/>
		</g>
	</g>
	<g>
		<g>
			<path class="st1" d="M266.18,108.94c-86.39,0-156.42,70.04-156.42,156.42c0,36.31,12.48,69.62,33.23,96.17l-10.45,53.85
				l50.8-17.51c24.04,15.07,52.38,23.92,82.84,23.92c86.39,0,156.44-70.04,156.44-156.43C422.62,178.98,352.58,108.94,266.18,108.94
				z"/>
			<path class="st2" d="M266.18,434.35c-29.58,0-58.59-7.83-84.28-22.69l-65.84,22.69l13.53-69.73
				c-21.21-29.07-32.39-63.27-32.39-99.27c0-93.18,75.81-168.99,168.99-168.99c93.19,0,169,75.81,169,168.99
				C435.18,358.54,359.37,434.35,266.18,434.35z M184.94,384.03l5.09,3.19c22.95,14.39,49.29,21.99,76.15,21.99
				c79.33,0,143.86-64.53,143.86-143.85c0-79.32-64.53-143.85-143.86-143.85c-79.32,0-143.84,64.53-143.84,143.85
				c0,32.27,10.57,62.85,30.55,88.42l3.53,4.52l-7.4,38.1L184.94,384.03z"/>
		</g>
		<path class="st2" d="M180.87,200.43c0,0,9.92-17.33,18-18.32c8.09-0.99,18.49-0.99,21.29,4.29c2.81,5.28,15.35,35.99,15.35,35.99
			s2.15,5.28-1.15,10.4c-3.3,5.12-10.73,12.54-10.73,12.54s-4.13,5.28,0,10.9c4.13,5.61,10.53,15.93,23.78,29.16
			c13.22,13.24,38.62,22.68,38.62,22.68s3.64,0.49,5.95-1.82c2.3-2.31,14.86-17.99,14.86-17.99s4.03-5.2,10.72-2.14
			c6.68,3.05,35.65,17.5,35.65,17.5s3.39,1.24,3.39,6.35c0,5.11-2.07,17.64-6.31,21.87c-4.23,4.24-16.61,17.29-35.22,17.29
			c-18.6,0-62.9-15.14-86.51-38.74c-23.61-23.61-44.57-47.55-49.51-69.33C174.11,219.25,174.77,209.4,180.87,200.43z"/>
	</g>
</g>
</svg>
