<svg width="300" height="300" viewBox="0 0 300 300" fill="none" xmlns="http://www.w3.org/2000/svg">
<rect width="300" height="300" rx="20" fill="#E7E6EA" fill-opacity="0.9"/>
<mask id="mask0_20_24" style="mask-type:alpha" maskUnits="userSpaceOnUse" x="87" y="92" width="126" height="115">
<path fill-rule="evenodd" clip-rule="evenodd" d="M186.526 112.564C189.089 112.92 191.239 113.462 193.209 114.286C200.866 117.49 206.949 123.635 210.121 131.371C212.5 137.172 212.5 144.527 212.5 159.236C212.5 173.945 212.5 181.3 210.121 187.101C206.949 194.837 200.866 200.982 193.209 204.186C187.466 206.589 180.186 206.589 165.625 206.589H134.375C119.814 206.589 112.534 206.589 106.791 204.186C99.134 200.982 93.0504 194.837 89.8787 187.101C87.5 181.3 87.5 173.945 87.5 159.236C87.5 144.527 87.5 137.172 89.8787 131.371C93.0504 123.635 99.134 117.49 106.791 114.286C108.761 113.462 110.911 112.92 113.474 112.564C115.533 105.26 117.102 101.09 120.14 98.1662C121.126 97.2185 122.21 96.382 123.374 95.6713C127.846 92.9413 133.566 92.9413 145.006 92.9413H154.994C166.434 92.9413 172.154 92.9413 176.626 95.6713C177.79 96.382 178.874 97.2185 179.859 98.1662C182.898 101.09 184.468 105.26 186.526 112.564Z" fill="white"/>
</mask>
<g mask="url(#mask0_20_24)">
<path d="M186.526 112.564L177.51 115.158L179.186 121.105L185.25 121.947L186.526 112.564ZM193.209 114.286L196.796 105.536L193.209 114.286ZM210.121 131.371L201.46 134.995L210.121 131.371ZM210.121 187.101L201.46 183.477L210.121 187.101ZM193.209 204.186L196.796 212.936L193.209 204.186ZM106.791 204.186L103.204 212.936L106.791 204.186ZM89.8788 187.101L98.5401 183.477L89.8788 187.101ZM89.8788 131.371L81.2174 127.746L89.8788 131.371ZM106.791 114.286L110.379 123.035L106.791 114.286ZM113.474 112.564L114.75 121.947L120.814 121.105L122.49 115.158L113.474 112.564ZM120.141 98.1662L126.606 105.024L120.141 98.1662ZM123.374 95.6713L128.223 103.777L123.374 95.6713ZM176.626 95.6713L171.777 103.777L176.626 95.6713ZM179.859 98.1662L186.325 91.3079L179.859 98.1662ZM185.25 121.947C187.235 122.222 188.57 122.595 189.621 123.035L196.796 105.536C193.909 104.328 190.944 103.618 187.802 103.182L185.25 121.947ZM189.621 123.035C194.981 125.278 199.239 129.58 201.46 134.995L218.782 127.746C214.659 117.691 206.751 109.701 196.796 105.536L189.621 123.035ZM201.46 134.995C202.097 136.549 202.584 138.687 202.849 142.607C203.12 146.613 203.125 151.752 203.125 159.236H221.875C221.875 152.011 221.88 146.118 221.556 141.318C221.226 136.434 220.524 131.993 218.782 127.746L201.46 134.995ZM203.125 159.236C203.125 166.72 203.12 171.859 202.849 175.865C202.584 179.785 202.097 181.923 201.46 183.477L218.782 190.725C220.524 186.479 221.226 182.038 221.556 177.154C221.88 172.354 221.875 166.461 221.875 159.236H203.125ZM201.46 183.477C199.239 188.892 194.981 193.193 189.621 195.437L196.796 212.936C206.751 208.771 214.659 200.781 218.782 190.725L201.46 183.477ZM189.621 195.437C188.082 196.081 185.966 196.572 182.086 196.84C178.121 197.114 173.034 197.119 165.625 197.119V216.06C172.777 216.06 178.611 216.065 183.362 215.737C188.197 215.405 192.592 214.695 196.796 212.936L189.621 195.437ZM165.625 197.119H134.375V216.06H165.625V197.119ZM134.375 197.119C126.966 197.119 121.879 197.114 117.915 196.84C114.034 196.572 111.918 196.081 110.379 195.437L103.204 212.936C107.408 214.695 111.803 215.405 116.638 215.737C121.389 216.065 127.223 216.06 134.375 216.06V197.119ZM110.379 195.437C105.019 193.193 100.76 188.892 98.5401 183.477L81.2174 190.725C85.3406 200.781 93.2493 208.771 103.204 212.936L110.379 195.437ZM98.5401 183.477C97.9028 181.923 97.4154 179.785 97.1506 175.865C96.8801 171.859 96.875 166.72 96.875 159.236H78.125C78.125 166.461 78.1199 172.354 78.4441 177.154C78.774 182.038 79.476 186.479 81.2174 190.725L98.5401 183.477ZM96.875 159.236C96.875 151.752 96.8801 146.613 97.1506 142.607C97.4154 138.687 97.9028 136.549 98.5401 134.995L81.2174 127.746C79.476 131.993 78.774 136.434 78.4441 141.318C78.1199 146.118 78.125 152.011 78.125 159.236H96.875ZM98.5401 134.995C100.76 129.58 105.019 125.278 110.379 123.035L103.204 105.536C93.2493 109.701 85.3406 117.691 81.2174 127.746L98.5401 134.995ZM110.379 123.035C111.43 122.595 112.765 122.222 114.75 121.947L112.197 103.182C109.057 103.618 106.091 104.328 103.204 105.536L110.379 123.035ZM122.49 115.158C124.622 107.598 125.667 105.927 126.606 105.024L113.675 91.3079C108.537 96.2516 106.444 102.923 104.457 109.97L122.49 115.158ZM126.606 105.024C127.098 104.551 127.64 104.132 128.223 103.777L118.525 87.5656C116.779 88.6316 115.153 89.8864 113.675 91.3079L126.606 105.024ZM128.223 103.777C128.815 103.415 129.832 102.973 132.499 102.707C135.351 102.423 139.1 102.412 145.006 102.412V83.4707C139.471 83.4707 134.641 83.4599 130.655 83.8578C126.484 84.2742 122.405 85.1974 118.525 87.5656L128.223 103.777ZM145.006 102.412H154.994V83.4707H145.006V102.412ZM154.994 102.412C160.9 102.412 164.649 102.423 167.501 102.707C170.168 102.973 171.185 103.415 171.777 103.777L181.475 87.5656C177.595 85.1974 173.516 84.2742 169.345 83.8578C165.359 83.4599 160.529 83.4707 154.994 83.4707V102.412ZM171.777 103.777C172.359 104.132 172.902 104.551 173.394 105.024L186.325 91.3079C184.847 89.8864 183.221 88.6316 181.475 87.5656L171.777 103.777ZM173.394 105.024C174.333 105.927 175.379 107.598 177.51 115.158L195.542 109.97C193.556 102.923 191.464 96.2516 186.325 91.3079L173.394 105.024Z" fill="#161925" fill-opacity="0.4"/>
<path d="M170.312 156.079C170.312 144.746 161.218 135.559 150 135.559C138.782 135.559 129.688 144.746 129.688 156.079C129.688 167.412 138.782 176.599 150 176.599C161.218 176.599 170.312 167.412 170.312 156.079Z" stroke="#161925" stroke-opacity="0.4" stroke-width="10"/>
</g>
<mask id="mask1_20_24" style="mask-type:alpha" maskUnits="userSpaceOnUse" x="87" y="92" width="126" height="115">
<path fill-rule="evenodd" clip-rule="evenodd" d="M186.526 112.564C189.089 112.92 191.239 113.462 193.209 114.286C200.866 117.49 206.949 123.635 210.121 131.371C212.5 137.172 212.5 144.527 212.5 159.236C212.5 173.945 212.5 181.3 210.121 187.101C206.949 194.837 200.866 200.982 193.209 204.186C187.466 206.589 180.186 206.589 165.625 206.589H134.375C119.814 206.589 112.534 206.589 106.791 204.186C99.134 200.982 93.0504 194.837 89.8788 187.101C87.5 181.3 87.5 173.945 87.5 159.236C87.5 144.527 87.5 137.172 89.8788 131.371C93.0504 123.635 99.134 117.49 106.791 114.286C108.761 113.462 110.911 112.92 113.474 112.564C115.533 105.26 117.102 101.09 120.141 98.1662C121.126 97.2185 122.21 96.382 123.374 95.6713C127.846 92.9413 133.566 92.9413 145.006 92.9413H154.994C166.434 92.9413 172.154 92.9413 176.626 95.6713C177.79 96.382 178.874 97.2185 179.859 98.1662C182.898 101.09 184.468 105.26 186.526 112.564Z" fill="white"/>
</mask>
<g mask="url(#mask1_20_24)">
</g>
</svg>
